HIERARCHY
ROOT Hips
{
	OFFSET 59.912201 -6.240445 92.587402
	CHANNELS 6 Xposition Yposition Zposition Xrotation Yrotation Zrotation
	JOINT spine
	{
		OFFSET 0.000000 -0.429886 7.475601
		CHANNELS 3 Xrotation Yrotation Zrotation
		JOINT spine1
		{
			OFFSET 0.000000 -0.000002 9.923012
			CHANNELS 3 Xrotation Yrotation Zrotation
			JOINT spine2
			{
				OFFSET 0.000000 -0.000001 9.508041
				CHANNELS 3 Xrotation Yrotation Zrotation
				JOINT Neck
				{
					OFFSET 0.000000 -1.163844 24.411095
					CHANNELS 3 Xrotation Yrotation Zrotation
					JOINT Head
					{
						OFFSET 0.000000 -0.000001 7.375229
						CHANNELS 3 Xrotation Yrotation Zrotation
						End Site
						{
							OFFSET 0.000000 5.887407 17.852203
						}
					}
				}
				JOINT RightShoulder
				{
					OFFSET -4.003559 0.557467 10.267906
					CHANNELS 3 Xrotation Yrotation Zrotation
					JOINT RightArm
					{
						OFFSET 0.000000 -0.000002 13.467300
						CHANNELS 3 Xrotation Yrotation Zrotation
						JOINT RightArmRoll
						{
							OFFSET 0.000000 -0.000001 6.798584
							CHANNELS 3 Xrotation Yrotation Zrotation
							JOINT RightForeArm
							{
								OFFSET 0.000000 -0.000003 19.801804
								CHANNELS 3 Xrotation Yrotation Zrotation
								JOINT RightForeArmRoll
								{
									OFFSET 0.000000 -0.000001 7.629044
									CHANNELS 3 Xrotation Yrotation Zrotation
									JOINT RightHand
									{
										OFFSET 0.000000 -0.000002 15.309799
										CHANNELS 3 Xrotation Yrotation Zrotation
										End Site
										{
											OFFSET 0.000000 0.000000 0.100006
										}
									}
								}
							}
						}
					}
				}
				JOINT LeftShoulder
				{
					OFFSET 4.003559 0.557467 10.267906
					CHANNELS 3 Xrotation Yrotation Zrotation
					JOINT LeftArm
					{
						OFFSET 0.000000 -0.000002 13.467300
						CHANNELS 3 Xrotation Yrotation Zrotation
						JOINT LeftArmRoll
						{
							OFFSET 0.000000 -0.000001 6.798584
							CHANNELS 3 Xrotation Yrotation Zrotation
							JOINT LeftForeArm
							{
								OFFSET 0.000000 -0.000003 19.801804
								CHANNELS 3 Xrotation Yrotation Zrotation
								JOINT LeftForeArmRoll
								{
									OFFSET 0.000000 -0.000001 7.629059
									CHANNELS 3 Xrotation Yrotation Zrotation
									JOINT LeftHand
									{
										OFFSET 0.000000 -0.000002 15.309799
										CHANNELS 3 Xrotation Yrotation Zrotation
										End Site
										{
											OFFSET 0.000000 0.000000 0.100006
										}
									}
								}
							}
						}
					}
				}
			}
		}
	}
	JOINT RightUpLeg
	{
		OFFSET -6.626091 1.019270 -1.215050
		CHANNELS 3 Xrotation Yrotation Zrotation
		JOINT RightUpLegRoll
		{
			OFFSET 0.000000 -0.000003 17.951698
			CHANNELS 3 Xrotation Yrotation Zrotation
			JOINT RightLeg
			{
				OFFSET 0.000000 0.000003 -22.230400
				CHANNELS 3 Xrotation Yrotation Zrotation
				JOINT RightLegRoll
				{
					OFFSET 0.000000 -0.000003 22.303200
					CHANNELS 3 Xrotation Yrotation Zrotation
					JOINT RightFoot
					{
						OFFSET 0.000000 -0.000003 18.563599
						CHANNELS 3 Xrotation Yrotation Zrotation
						JOINT RightToeBase
						{
							OFFSET 0.000000 -0.000002 15.518295
							CHANNELS 3 Xrotation Yrotation Zrotation
							End Site
							{
								OFFSET 0.006577 0.866261 7.515381
							}
						}
					}
				}
			}
		}
	}
	JOINT LeftUpLeg
	{
		OFFSET 6.626091 1.019270 -1.215050
		CHANNELS 3 Xrotation Yrotation Zrotation
		JOINT LeftUpLegRoll
		{
			OFFSET 0.000000 -0.000003 17.951797
			CHANNELS 3 Xrotation Yrotation Zrotation
			JOINT LeftLeg
			{
				OFFSET 0.000000 -0.000004 22.230293
				CHANNELS 3 Xrotation Yrotation Zrotation
				JOINT LeftLegRoll
				{
					OFFSET 0.000000 -0.000004 22.509308
					CHANNELS 3 Xrotation Yrotation Zrotation
					JOINT LeftFoot
					{
						OFFSET 0.000000 -0.000003 18.357498
						CHANNELS 3 Xrotation Yrotation Zrotation
						JOINT LeftToeBase
						{
							OFFSET 0.000000 -0.000002 15.518295
							CHANNELS 3 Xrotation Yrotation Zrotation
							End Site
							{
								OFFSET -0.029480 0.866261 7.515381
							}
						}
					}
				}
			}
		}
	}
}
MOTION
Frames: 4
Frame Time: 0.041667
60.797302 -7.517590 92.349693 -9.521498 -1.853388 -4.646448 -0.133971 -0.018006 -0.129737 3.734122 -0.022314 -0.261235 5.379190 -0.025444 -0.260952 6.316735 17.766456 -0.113143 7.236363 -15.855171 0.705152 -0.470632 -60.060367 -0.718043 1.832266 -113.352672 29.675966 0.000000 -0.000001 -0.000002 11.360613 -1.970700 -1.487375 -0.000003 -0.000014 -3.002301 -5.000174 -7.999869 0.000040 -6.655989 81.148672 9.493023 -43.580295 94.674475 19.553640 -0.000001 -0.000022 0.000009 7.686917 4.731544 0.644793 -0.000000 -0.000001 3.005641 -5.000188 7.999430 -0.000081 -7.362374 -172.857758 2.046650 -179.999991 0.000004 -1.314002 150.073408 1.252399 -0.946152 -0.000000 -0.000001 0.626874 69.925223 6.907814 2.016223 28.438148 -7.145871 4.292867 3.476950 -173.489892 4.986119 -0.000004 -0.000005 -1.295280 -11.786172 5.102465 0.760949 0.000005 0.000002 -0.130528 72.358409 -7.124581 -1.251885 25.456953 7.355613 -0.000009 
60.799404 -7.507491 92.349899 -9.522778 -1.859348 -4.690170 -0.134038 -0.018063 -0.129720 3.733172 -0.023439 -0.260655 5.378231 -0.026562 -0.260357 6.303320 17.811571 -0.102444 7.236200 -15.872955 0.712286 -0.471851 -60.058557 -0.719262 1.382744 -113.281064 29.292298 0.000000 -0.000001 -0.000004 11.320125 -1.917633 -1.494324 -0.000002 -0.000015 -3.002302 -5.000173 -7.999869 0.000039 -6.613058 81.186074 9.450642 -44.838433 94.659414 20.808275 -0.000001 -0.000022 0.000010 7.733588 4.727159 0.643376 -0.000002 -0.000001 3.005640 -5.000189 7.999430 -0.000081 -7.365202 -172.833989 2.041565 -179.999991 0.000005 -1.314997 150.082820 1.275053 -0.938393 -0.000001 -0.000001 0.629571 69.962475 6.906615 2.016894 28.419642 -7.148524 4.265280 3.448134 -173.478732 4.981308 -0.000004 -0.000005 -1.297241 -11.836199 5.114394 0.764588 0.000004 0.000002 -0.130959 72.385983 -7.128382 -1.236219 25.456955 7.355613 -0.000009 
60.804405 -7.500980 92.336296 -9.524201 -1.865515 -4.734161 -0.133991 -0.018140 -0.129692 3.732401 -0.024618 -0.260023 5.377460 -0.027733 -0.259710 6.289163 17.858692 -0.091284 7.236888 -15.892201 0.719915 -0.472572 -60.056159 -0.719825 0.938763 -113.214777 28.913471 0.000000 -0.000000 -0.000002 11.282359 -1.865132 -1.501105 -0.000001 -0.000014 -3.002300 -5.000174 -7.999868 0.000041 -6.566158 81.224528 9.404201 -46.070661 94.645685 22.039998 -0.000001 -0.000023 0.000008 7.784601 4.725102 0.641676 -0.000001 -0.000002 3.005640 -5.000188 7.999430 -0.000080 -7.368045 -172.810220 2.035806 -179.999991 0.000006 -1.314996 150.092232 1.298588 -0.930140 -0.000001 -0.000001 0.632363 70.000560 6.905373 2.017606 28.400736 -7.151225 4.237101 3.419099 -173.467544 4.976072 -0.000005 -0.000005 -1.299220 -11.887147 5.126885 0.768359 0.000005 0.000002 -0.131396 72.413789 -7.132227 -1.220441 25.456953 7.355613 -0.000010 
60.808704 -7.496560 92.340202 -9.525718 -1.871808 -4.778338 -0.133852 -0.018229 -0.129660 3.731771 -0.025833 -0.259354 5.376830 -0.028942 -0.259025 6.274478 17.907031 -0.079763 7.238168 -15.912522 0.727909 -0.472944 -60.053250 -0.719927 0.498226 -113.150785 28.537611 0.000000 -0.000000 -0.000005 11.246307 -1.813030 -1.507765 -0.000001 -0.000015 -3.002300 -5.000173 -7.999869 0.000040 -6.516486 81.263917 9.354923 -47.286632 94.633432 23.257414 -0.000001 -0.000023 0.000009 7.838655 4.724672 0.639766 -0.000001 -0.000002 3.005638 -5.000188 7.999430 -0.000083 -7.370898 -172.785481 2.029448 -179.999991 0.000006 -1.314997 150.101713 1.322980 -0.922404 -0.000002 -0.000001 0.635227 70.039301 6.904143 2.018277 28.381531 -7.153969 4.208506 3.389943 -173.455372 4.970591 -0.000005 -0.000004 -1.301210 -11.938506 5.139768 0.772212 0.000005 0.000001 -0.131834 72.441840 -7.136085 -1.204349 25.456955 7.355613 -0.000011 
